<svg width="32" height="32" viewBox="0 0 32 32" fill="none" xmlns="http://www.w3.org/2000/svg">
  <path fill-rule="evenodd" clip-rule="evenodd"
    d="M7.8737 20.012V19.9902L15.948 16.0463L24.0223 19.9902V20.012C18.9271 22.5008 12.9689 22.5008 7.8737 20.012ZM4.85643 16.0992C3.75303 16.6381 3.05322 17.7588 3.05322 18.9868V21.0154C3.05322 22.2434 3.75303 23.364 4.85643 23.903L14.5376 28.6317C15.4276 29.0665 16.4684 29.0665 17.3585 28.6317L27.0396 23.903C28.143 23.364 28.8428 22.2434 28.8428 21.0154V18.9868C28.8428 17.7588 28.143 16.6381 27.0396 16.0992L17.3585 11.3705C16.4684 10.9357 15.4276 10.9357 14.5376 11.3705L4.85643 16.0992Z"
    fill="#BAB3E7" />
  <path
    d="M0 13.662C0 12.4507 0.681149 11.3423 1.76183 10.795L14.4959 4.34664C15.4086 3.88445 16.4869 3.88445 17.3996 4.34664L30.1337 10.795C31.2144 11.3423 31.8955 12.4507 31.8955 13.662V14.0558C31.8955 15.8306 30.4567 17.2694 28.6819 17.2694H22.6964L15.9879 13.662L7.79311 17.2694H3.21365C1.4388 17.2694 0 15.8306 0 14.0558V13.662Z"
    fill="#635ED4" />
  <path d="M19.9646 21.9946L15.9475 16.2552L11.9304 21.9946V25.8258H19.9646V21.9946Z" fill="#BAB3E7" />
  <path
    d="M19.9646 27.3587L17.3582 28.6321C16.4683 29.0666 15.4277 29.0666 14.5378 28.6321L11.9304 27.3577V21.9944H19.9646V27.3587Z"
    fill="#635ED4" />
  <path
    d="M3.28935 22.2247C3.13594 21.8471 3.05322 21.4376 3.05322 21.0154V18.9868C3.05322 17.7588 3.75303 16.6381 4.85643 16.0992L14.5376 11.3705C15.4276 10.9357 16.4684 10.9357 17.3585 11.3705L27.0396 16.0992C28.143 16.6381 28.8428 17.7588 28.8428 18.9868V21.0154C28.8428 21.4376 28.7601 21.8471 28.6067 22.2247L26.4749 21.1842C19.8315 17.9417 12.0645 17.9417 5.42115 21.1842L3.28935 22.2247Z"
    fill="#A399E2" />
  <path d="M17.844 18.9642L15.9475 19.8948L14.054 18.9603L15.9475 16.2552L17.844 18.9642Z" fill="#635ED4" />
</svg>